<svg aria-hidden="true" style="position: absolute; width: 0; height: 0; overflow: hidden;" version="1.1" xmlns="http://www.w3.org/2000/svg" xmlns:xlink="http://www.w3.org/1999/xlink">
<defs>
<symbol id="instagram" viewBox="0 0 32 32">
<path fill="none" stroke="#fff" style="stroke: var(--color1, #fff)" stroke-linejoin="miter" stroke-linecap="butt" stroke-miterlimit="4" stroke-width="0.5161" d="M31.484 16c0 8.552-6.932 15.484-15.484 15.484s-15.484-6.932-15.484-15.484c0-8.552 6.932-15.484 15.484-15.484s15.484 6.932 15.484 15.484z"></path>
<path fill="#fff" style="fill: var(--color1, #fff)" d="M16 14.189c-0.417 0-0.806 0.107-1.169 0.323-0.349 0.202-0.632 0.484-0.847 0.847-0.202 0.349-0.302 0.733-0.302 1.149s0.101 0.806 0.302 1.169c0.215 0.349 0.497 0.632 0.847 0.847 0.363 0.202 0.753 0.302 1.169 0.302s0.8-0.101 1.149-0.302c0.363-0.215 0.645-0.497 0.847-0.847 0.215-0.363 0.323-0.753 0.323-1.169s-0.108-0.8-0.323-1.149c-0.202-0.363-0.484-0.645-0.847-0.847-0.349-0.215-0.733-0.323-1.149-0.323zM16 18.020c-0.417 0-0.773-0.148-1.069-0.444s-0.444-0.652-0.444-1.069c0-0.417 0.148-0.773 0.444-1.069s0.652-0.444 1.069-0.444c0.417 0 0.773 0.148 1.069 0.444s0.444 0.652 0.444 1.069c0 0.417-0.148 0.773-0.444 1.069s-0.652 0.444-1.069 0.444zM18.964 14.088c-0.013 0.148-0.074 0.275-0.181 0.383-0.094 0.107-0.215 0.161-0.363 0.161s-0.276-0.054-0.383-0.161c-0.108-0.108-0.161-0.235-0.161-0.383s0.054-0.276 0.161-0.383 0.235-0.161 0.383-0.161c0.148 0 0.276 0.054 0.383 0.161s0.161 0.235 0.161 0.383zM20.496 14.633c-0.027-0.39-0.087-0.726-0.181-1.008-0.121-0.336-0.309-0.625-0.565-0.867-0.242-0.255-0.531-0.444-0.867-0.565-0.282-0.094-0.618-0.148-1.008-0.161-0.376-0.027-1.001-0.040-1.875-0.040s-1.505 0.013-1.895 0.040c-0.376 0.013-0.706 0.067-0.988 0.161-0.336 0.121-0.632 0.309-0.887 0.565-0.242 0.242-0.423 0.531-0.544 0.867-0.094 0.282-0.155 0.618-0.181 1.008-0.013 0.376-0.020 1.001-0.020 1.875s0.007 1.505 0.020 1.895c0.027 0.376 0.087 0.706 0.181 0.988 0.121 0.336 0.302 0.632 0.544 0.887 0.255 0.242 0.551 0.417 0.887 0.524 0.282 0.108 0.612 0.168 0.988 0.181 0.39 0.027 1.022 0.040 1.895 0.040s1.499-0.013 1.875-0.040c0.39-0.013 0.726-0.067 1.008-0.161 0.336-0.121 0.625-0.302 0.867-0.544 0.255-0.255 0.444-0.551 0.565-0.887 0.094-0.282 0.148-0.612 0.161-0.988 0.027-0.39 0.040-1.022 0.040-1.895s-0.007-1.499-0.020-1.875zM19.528 19.169c-0.161 0.403-0.45 0.692-0.867 0.867-0.215 0.081-0.578 0.134-1.089 0.161-0.282 0.013-0.699 0.020-1.25 0.020h-0.645c-0.538 0-0.954-0.007-1.25-0.020-0.497-0.027-0.86-0.081-1.089-0.161-0.403-0.161-0.692-0.45-0.867-0.867-0.081-0.229-0.134-0.591-0.161-1.089-0.013-0.296-0.020-0.712-0.020-1.25v-0.645c0-0.538 0.007-0.954 0.020-1.25 0.027-0.511 0.081-0.874 0.161-1.089 0.161-0.417 0.45-0.706 0.867-0.867 0.229-0.081 0.591-0.134 1.089-0.161 0.296-0.013 0.712-0.020 1.25-0.020h0.645c0.538 0 0.954 0.007 1.25 0.020 0.511 0.027 0.874 0.081 1.089 0.161 0.417 0.161 0.706 0.45 0.867 0.867 0.081 0.215 0.134 0.578 0.161 1.089 0.013 0.282 0.020 0.699 0.020 1.25v0.645c0 0.538-0.007 0.954-0.020 1.25-0.027 0.497-0.081 0.86-0.161 1.089z"></path>
</symbol>
<symbol id="twitter" viewBox="0 0 32 32">
<path fill="none" stroke="#fff" style="stroke: var(--color1, #fff)" stroke-linejoin="miter" stroke-linecap="butt" stroke-miterlimit="4" stroke-width="0.5161" d="M31.484 16c0 8.552-6.932 15.484-15.484 15.484s-15.484-6.932-15.484-15.484c0-8.552 6.932-15.484 15.484-15.484s15.484 6.932 15.484 15.484z"></path>
<path fill="#fff" style="fill: var(--color1, #fff)" d="M20.093 14.411c0.013 0.054 0.020 0.141 0.020 0.262 0 0.968-0.235 1.902-0.706 2.802-0.484 0.954-1.163 1.714-2.036 2.278-0.954 0.632-2.050 0.948-3.286 0.948-1.183 0-2.265-0.316-3.246-0.948 0.148 0.013 0.316 0.020 0.504 0.020 0.981 0 1.862-0.302 2.641-0.907-0.47 0-0.887-0.134-1.25-0.403-0.349-0.282-0.591-0.632-0.726-1.048 0.134 0.013 0.262 0.020 0.383 0.020 0.188 0 0.376-0.020 0.565-0.061-0.484-0.108-0.887-0.356-1.21-0.746s-0.484-0.833-0.484-1.331v-0.040c0.296 0.175 0.612 0.269 0.948 0.282-0.282-0.202-0.511-0.457-0.685-0.766s-0.262-0.645-0.262-1.008c0-0.376 0.101-0.733 0.302-1.069 0.524 0.659 1.163 1.183 1.915 1.573 0.766 0.39 1.579 0.605 2.44 0.645-0.027-0.161-0.040-0.323-0.040-0.484 0-0.376 0.094-0.726 0.282-1.048 0.188-0.336 0.444-0.598 0.766-0.786s0.672-0.282 1.048-0.282c0.309 0 0.591 0.060 0.847 0.181 0.269 0.121 0.504 0.282 0.706 0.484 0.484-0.094 0.934-0.262 1.351-0.504-0.161 0.497-0.47 0.887-0.927 1.169 0.403-0.054 0.806-0.168 1.21-0.343-0.296 0.43-0.652 0.8-1.069 1.109z"></path>
</symbol>
<symbol id="facebook" viewBox="0 0 32 32">
<path fill="none" stroke="#fff" style="stroke: var(--color1, #fff)" stroke-linejoin="miter" stroke-linecap="butt" stroke-miterlimit="4" stroke-width="0.5161" d="M31.484 16c0 8.552-6.932 15.484-15.484 15.484s-15.484-6.932-15.484-15.484c0-8.552 6.932-15.484 15.484-15.484s15.484 6.932 15.484 15.484z"></path>
<path fill="#fff" style="fill: var(--color1, #fff)" d="M14.891 21.669v-4.617h-1.552v-1.835h1.552v-1.452c0-0.766 0.215-1.358 0.645-1.774 0.43-0.43 1.001-0.645 1.714-0.645 0.578 0 1.048 0.027 1.411 0.081v1.633h-0.968c-0.363 0-0.611 0.081-0.746 0.242-0.108 0.134-0.161 0.349-0.161 0.645v1.27h1.714l-0.242 1.835h-1.472v4.617h-1.895z"></path>
</symbol>
<symbol id="Vector" viewBox="0 0 32 32">
<path fill="#ffd600" style="fill: var(--color1, #ffd600)" d="M31.219 14.737c-0.3 0-1.441 0.421-2.041 0.662-0.060-0.241-0.3-0.421-0.6-0.421s-0.601 0.18-0.601 0.421l-1.141-0.18c-0.18-2.466-1.141-4.632-2.642-6.376l0.66-0.962c0.18 0.12 0.54 0.12 0.72-0.12 0.24-0.241 0.3-0.541 0.12-0.722 0.601-0.241 1.741-0.722 1.921-0.962 0.24-0.301 0.060-0.902-0.36-1.383-0.48-0.421-1.081-0.601-1.381-0.361-0.24 0.18-0.721 1.323-0.961 1.925-0.18-0.12-0.54-0.060-0.72 0.12-0.24 0.241-0.3 0.541-0.12 0.722l-0.961 0.662c-1.741-1.504-3.962-2.466-6.364-2.647l-0.18-1.143c0.24-0.060 0.42-0.301 0.42-0.602s-0.18-0.541-0.42-0.602c0.24-0.602 0.66-1.744 0.66-2.045-0.060-0.421-0.6-0.722-1.261-0.722s-1.201 0.301-1.261 0.722c0 0.301 0.42 1.444 0.66 2.045-0.24 0.060-0.42 0.301-0.42 0.602s0.18 0.602 0.42 0.602l-0.18 1.143c-2.462 0.18-4.623 1.143-6.364 2.647l-0.961-0.662c0.12-0.18 0.12-0.541-0.12-0.722-0.24-0.241-0.54-0.301-0.72-0.12-0.24-0.601-0.72-1.684-0.961-1.925-0.3-0.241-0.901-0.060-1.321 0.421-0.48 0.421-0.66 1.023-0.42 1.383 0.18 0.241 1.321 0.722 1.921 0.962-0.12 0.18-0.060 0.541 0.12 0.722 0.24 0.241 0.54 0.301 0.72 0.12l0.66 0.962c-1.501 1.744-2.462 3.97-2.642 6.376l-1.141 0.18c-0.060-0.241-0.3-0.421-0.6-0.421s-0.54 0.18-0.6 0.421c-0.6-0.241-1.741-0.662-2.041-0.662-0.42 0.060-0.72 0.601-0.72 1.263s0.3 1.203 0.72 1.263c0.3 0 1.441-0.421 2.041-0.662 0.060 0.241 0.3 0.421 0.6 0.421s0.6-0.18 0.6-0.421l1.141 0.18c0.18 2.466 1.141 4.632 2.642 6.376l-0.6 0.902c-0.18-0.12-0.54-0.12-0.72 0.12-0.24 0.241-0.3 0.541-0.12 0.722-0.6 0.241-1.681 0.722-1.921 0.963-0.24 0.301-0.060 0.902 0.36 1.383 0.48 0.481 1.081 0.662 1.381 0.361 0.24-0.18 0.72-1.323 0.961-1.925 0.18 0.12 0.54 0.060 0.72-0.12 0.24-0.241 0.3-0.541 0.12-0.722l0.961-0.662c1.741 1.504 3.962 2.466 6.364 2.647l0.18 1.143c-0.24 0.060-0.42 0.301-0.42 0.602s0.18 0.541 0.42 0.601c-0.24 0.602-0.66 1.744-0.66 2.045 0.060 0.421 0.6 0.722 1.261 0.722s1.201-0.301 1.261-0.722c0-0.301-0.42-1.444-0.66-2.045 0.24-0.060 0.42-0.301 0.42-0.601s-0.18-0.602-0.42-0.602l0.18-1.143c2.462-0.18 4.623-1.143 6.364-2.647l0.961 0.662c-0.12 0.18-0.12 0.541 0.12 0.722 0.24 0.241 0.54 0.301 0.72 0.12 0.24 0.601 0.72 1.744 0.961 1.925 0.3 0.241 0.9 0.060 1.381-0.361 0.48-0.481 0.66-1.083 0.36-1.383-0.18-0.241-1.321-0.722-1.921-0.963 0.12-0.18 0.060-0.541-0.12-0.722-0.24-0.241-0.54-0.301-0.72-0.12l-0.66-0.962c1.501-1.744 2.462-3.97 2.642-6.376l1.141-0.18c0.060 0.241 0.3 0.421 0.6 0.421s0.54-0.18 0.6-0.421c0.601 0.241 1.741 0.662 2.041 0.662 0.42-0.060 0.72-0.602 0.72-1.263-0.12-0.601-0.42-1.203-0.781-1.263zM6.604 16.421c-0.24 0-0.42-0.18-0.42-0.421s0.18-0.421 0.42-0.421c0.24 0 0.42 0.18 0.42 0.421s-0.18 0.421-0.42 0.421zM22.274 9.083c0.18-0.18 0.42-0.18 0.6 0s0.18 0.421 0 0.601c-0.18 0.18-0.42 0.18-0.6 0-0.12-0.18-0.12-0.421 0-0.601zM15.97 6.256c0.24 0 0.42 0.18 0.42 0.421s-0.18 0.421-0.42 0.421c-0.24 0-0.42-0.18-0.42-0.421s0.18-0.421 0.42-0.421zM9.066 9.083c0.18-0.18 0.42-0.18 0.6 0s0.18 0.421 0 0.601c-0.18 0.18-0.42 0.18-0.6 0-0.12-0.18-0.12-0.421 0-0.601zM10.146 10.827l0.48 0.481c0.12 0.12 0.24 0.12 0.36 0.060l0.66 0.662c-0.18 0.421 0 1.083 0.54 1.624 0.6 0.601 1.441 0.782 1.801 0.421-0.48 0.481-0.78 1.143-0.78 1.865v-0.18h-2.341c-0.060 0-0.12-0.060-0.12-0.18s0.060-0.18 0.12-0.18h2.462v-0.060c0-0.18-0.18-0.361-0.36-0.361h-2.341c-0.12 0-0.42 0.361-0.6 0.662h-0.72c-0.060-0.12-0.18-0.241-0.3-0.241h-0.78c0.12-1.684 0.78-3.308 1.921-4.571zM9.666 22.917c-0.18 0.18-0.42 0.18-0.6 0s-0.18-0.421 0-0.602c0.18-0.18 0.42-0.18 0.6 0s0.18 0.421 0 0.602zM10.146 21.173c-1.141-1.263-1.861-2.947-1.981-4.752h0.78c0.12 0 0.3-0.12 0.3-0.241h0.66c0.18 0.301 0.48 0.722 0.6 0.722h2.341c0.18 0 0.36-0.12 0.36-0.301v-0.12h-2.341c-0.060 0-0.12-0.060-0.12-0.18s0.060-0.18 0.12-0.18h2.462v-0.18c0 0.722 0.3 1.383 0.78 1.865-0.36-0.361-1.201-0.18-1.801 0.421-0.54 0.541-0.72 1.203-0.54 1.624l-0.66 0.662c-0.12-0.060-0.3-0.060-0.36 0.060l-0.6 0.602zM15.97 25.805c-0.24 0-0.42-0.18-0.42-0.421s0.18-0.421 0.42-0.421c0.24 0 0.42 0.18 0.42 0.421s-0.18 0.421-0.42 0.421zM22.874 22.917c-0.18 0.18-0.42 0.18-0.6 0s-0.18-0.421 0-0.602c0.18-0.18 0.42-0.18 0.6 0s0.18 0.421 0 0.602zM21.794 21.173l-0.48-0.481c-0.12-0.12-0.24-0.12-0.36-0.060l-0.66-0.662c0.18-0.421-0-1.083-0.54-1.624-0.6-0.602-1.441-0.782-1.801-0.421s-0.18 1.203 0.42 1.805c0.54 0.541 1.201 0.722 1.621 0.541l0.66 0.662c-0.060 0.12-0.060 0.301 0.060 0.361l0.48 0.481c-1.261 1.143-2.882 1.865-4.683 1.985v-0.782c0-0.12-0.12-0.301-0.24-0.301v-0.722c0.24-0.18 0.66-0.481 0.66-0.602v-2.346c0-0.18-0.18-0.361-0.36-0.361h-0.060v2.466c0 0.060-0.060 0.12-0.18 0.12s-0.18-0.060-0.18-0.12v-2.406h-0.36v2.406c0 0.060-0.060 0.12-0.18 0.12s-0.18-0.060-0.18-0.12v-2.406h-0.12c-0.18 0-0.3 0.18-0.3 0.361v2.346c0 0.12 0.42 0.421 0.72 0.601v0.662c-0.12 0.060-0.24 0.18-0.24 0.301v0.782c-1.801-0.12-3.482-0.842-4.743-1.985l0.48-0.481c0.12-0.12 0.12-0.241 0.060-0.361l0.66-0.662c0.42 0.18 1.081 0 1.621-0.541 0.6-0.602 0.78-1.444 0.42-1.805 0.48 0.481 1.141 0.782 1.861 0.782 1.501 0 2.642-1.203 2.642-2.647 0-1.504-1.201-2.647-2.642-2.647-0.72 0-1.381 0.301-1.861 0.782 0.36-0.361 0.18-1.203-0.42-1.805-0.54-0.541-1.201-0.722-1.621-0.541l-0.66-0.662c0.060-0.12 0.060-0.301-0.060-0.361l-0.48-0.481c1.261-1.143 2.942-1.865 4.743-1.985v0.782c0 0.12 0.12 0.301 0.24 0.301v0.662c-0.3 0.18-0.72 0.481-0.72 0.601v2.346c0 0.18 0.12 0.361 0.3 0.361h0.12v-2.526c0-0.060 0.060-0.12 0.18-0.12s0.18 0.060 0.18 0.12v2.466h0.36v-2.466c0-0.060 0.060-0.12 0.18-0.12s0.18 0.060 0.18 0.12v2.466h0.060c0.18 0 0.36-0.18 0.36-0.361v-2.346c0-0.12-0.36-0.421-0.66-0.601v-0.722c0.12-0.060 0.24-0.18 0.24-0.301v-0.782c1.801 0.12 3.422 0.842 4.683 1.925l-0.48 0.481c-0.12 0.12-0.12 0.241-0.060 0.361l-0.66 0.662c-0.42-0.18-1.081 0-1.621 0.541-0.6 0.601-0.78 1.444-0.42 1.804s1.201 0.18 1.801-0.421c0.54-0.541 0.72-1.203 0.54-1.624l0.66-0.662c0.12 0.060 0.3 0.060 0.36-0.060l0.48-0.481c1.141 1.263 1.861 2.887 1.981 4.692h-0.781c-0.12 0-0.3 0.12-0.3 0.241h-0.72c-0.18-0.241-0.48-0.662-0.6-0.662h-2.342c-0.18 0-0.36 0.18-0.36 0.361v0.060h2.401c0.060 0 0.12 0.060 0.12 0.18s-0.060 0.18-0.12 0.18h-2.401v0.301h2.401c0.060 0 0.12 0.060 0.12 0.18s-0.060 0.18-0.12 0.18h-2.401v0.12c0 0.18 0.18 0.301 0.36 0.301h2.342c0.12 0 0.42-0.421 0.6-0.722h0.66c0.060 0.12 0.18 0.241 0.3 0.241h0.78c-0.060 1.865-0.78 3.489-1.921 4.752zM14.289 16c0-0.902 0.72-1.684 1.681-1.684 0.901 0 1.681 0.722 1.681 1.684 0 0.902-0.72 1.684-1.681 1.684-0.901 0-1.681-0.722-1.681-1.684zM25.336 16.421c-0.24 0-0.42-0.18-0.42-0.421s0.18-0.421 0.42-0.421c0.24 0 0.42 0.18 0.42 0.421s-0.18 0.421-0.42 0.421z"></path>
</symbol>
<symbol id="down-btn" viewBox="0 0 32 32">
<path fill="none" stroke="#fff" style="stroke: var(--color2, #fff)" stroke-linejoin="miter" stroke-linecap="butt" stroke-miterlimit="4" stroke-width="0.5161" d="M31.484 16c0 8.552-6.932 15.484-15.484 15.484s-15.484-6.932-15.484-15.484c0-8.552 6.932-15.484 15.484-15.484s15.484 6.932 15.484 15.484z"></path>
<path fill="#fff" style="fill: var(--color2, #fff)" d="M26.323 16c0 5.701-4.622 10.323-10.323 10.323s-10.323-4.622-10.323-10.323c0-5.701 4.622-10.323 10.323-10.323s10.323 4.622 10.323 10.323z"></path>
<path fill="#333" style="fill: var(--color3, #333)" d="M15.657 18.194l-2.742-2.742c-0.094-0.094-0.141-0.208-0.141-0.343s0.047-0.249 0.141-0.343l0.464-0.444c0.094-0.094 0.208-0.141 0.343-0.141s0.249 0.047 0.343 0.141l1.935 1.935 1.935-1.935c0.094-0.094 0.208-0.141 0.343-0.141s0.249 0.047 0.343 0.141l0.464 0.444c0.094 0.094 0.141 0.208 0.141 0.343s-0.047 0.249-0.141 0.343l-2.742 2.742c-0.094 0.094-0.208 0.141-0.343 0.141s-0.249-0.047-0.343-0.141z"></path>
</symbol>
<symbol id="about-us" viewBox="0 0 31 32">
<path fill="none" stroke="#e8c300" style="stroke: var(--color1, #e8c300)" stroke-linejoin="miter" stroke-linecap="butt" stroke-miterlimit="4" stroke-width="2.8444" d="M7.467 7.111h17.067c0.196 0 0.356 0.159 0.356 0.356v17.067c0 0.196-0.159 0.356-0.356 0.356h-17.067c-0.196 0-0.356-0.159-0.356-0.356v-17.067c0-0.196 0.159-0.356 0.356-0.356z"></path>
</symbol>
</defs>
</svg>
